<svg xmlns="http://www.w3.org/2000/svg" viewBox="0 0 48 48">
  <circle cx="24" cy="24" r="24" fill="#d33"/>
  <path d="m29.4 24.607 5.939-5.939c.377-.372.566-.835.566-1.373q0-.81-.566-1.374l-2.747-2.747a1.9 1.9 0 0 0-1.373-.564q-.809-.002-1.374.564l-5.939 5.939-5.939-5.939a1.9 1.9 0 0 0-1.374-.564q-.809-.002-1.374.564l-2.748 2.747a1.87 1.87 0 0 0-.566 1.374q0 .81.566 1.373l5.939 5.939-5.939 5.94a1.86 1.86 0 0 0-.566 1.373q0 .81.566 1.373l2.748 2.747q.566.566 1.374.564.808.002 1.374-.564l5.939-5.939 5.94 5.939q.565.566 1.374.564.809.002 1.373-.564l2.747-2.747c.377-.372.566-.835.566-1.373q0-.81-.566-1.373z" fill="#fff"/>
</svg>
